<mxfile host="app.diagrams.net" agent="Mozilla/5.0 (Windows NT 10.0; Win64; x64) AppleWebKit/537.36 (KHTML, like Gecko) Chrome/131.0.0.0 Safari/537.36" version="26.0.9">
  <diagram name="Pagina-1" id="XMDVtniKE5t_mN10JWha">
    <mxGraphModel dx="1050" dy="522" grid="1" gridSize="10" guides="1" tooltips="1" connect="1" arrows="1" fold="1" page="1" pageScale="1" pageWidth="827" pageHeight="1169" math="0" shadow="0">
      <root>
        <mxCell id="0" />
        <mxCell id="1" parent="0" />
        <mxCell id="m4TTydlP-62cfUI--naQ-3" value="" style="edgeStyle=orthogonalEdgeStyle;rounded=0;orthogonalLoop=1;jettySize=auto;html=1;" edge="1" parent="1" source="m4TTydlP-62cfUI--naQ-1" target="m4TTydlP-62cfUI--naQ-2">
          <mxGeometry relative="1" as="geometry" />
        </mxCell>
        <mxCell id="m4TTydlP-62cfUI--naQ-1" value="START" style="ellipse;whiteSpace=wrap;html=1;" vertex="1" parent="1">
          <mxGeometry x="354" y="30" width="120" height="80" as="geometry" />
        </mxCell>
        <mxCell id="m4TTydlP-62cfUI--naQ-5" value="" style="edgeStyle=orthogonalEdgeStyle;rounded=0;orthogonalLoop=1;jettySize=auto;html=1;" edge="1" parent="1" source="m4TTydlP-62cfUI--naQ-2" target="m4TTydlP-62cfUI--naQ-4">
          <mxGeometry relative="1" as="geometry" />
        </mxCell>
        <mxCell id="m4TTydlP-62cfUI--naQ-2" value="READ N" style="shape=parallelogram;perimeter=parallelogramPerimeter;whiteSpace=wrap;html=1;fixedSize=1;" vertex="1" parent="1">
          <mxGeometry x="354" y="200" width="120" height="60" as="geometry" />
        </mxCell>
        <mxCell id="m4TTydlP-62cfUI--naQ-7" value="" style="edgeStyle=orthogonalEdgeStyle;rounded=0;orthogonalLoop=1;jettySize=auto;html=1;" edge="1" parent="1" source="m4TTydlP-62cfUI--naQ-4" target="m4TTydlP-62cfUI--naQ-6">
          <mxGeometry relative="1" as="geometry" />
        </mxCell>
        <mxCell id="m4TTydlP-62cfUI--naQ-8" value="FALSE" style="edgeLabel;html=1;align=center;verticalAlign=middle;resizable=0;points=[];" vertex="1" connectable="0" parent="m4TTydlP-62cfUI--naQ-7">
          <mxGeometry x="-0.4833" relative="1" as="geometry">
            <mxPoint as="offset" />
          </mxGeometry>
        </mxCell>
        <mxCell id="m4TTydlP-62cfUI--naQ-10" value="" style="edgeStyle=orthogonalEdgeStyle;rounded=0;orthogonalLoop=1;jettySize=auto;html=1;" edge="1" parent="1" source="m4TTydlP-62cfUI--naQ-4" target="m4TTydlP-62cfUI--naQ-9">
          <mxGeometry relative="1" as="geometry" />
        </mxCell>
        <mxCell id="m4TTydlP-62cfUI--naQ-13" value="TRUE" style="edgeLabel;html=1;align=center;verticalAlign=middle;resizable=0;points=[];" vertex="1" connectable="0" parent="m4TTydlP-62cfUI--naQ-10">
          <mxGeometry x="-0.18" y="-1" relative="1" as="geometry">
            <mxPoint as="offset" />
          </mxGeometry>
        </mxCell>
        <mxCell id="m4TTydlP-62cfUI--naQ-4" value="N % 1 == 0" style="rhombus;whiteSpace=wrap;html=1;" vertex="1" parent="1">
          <mxGeometry x="374" y="330" width="80" height="80" as="geometry" />
        </mxCell>
        <mxCell id="m4TTydlP-62cfUI--naQ-19" style="edgeStyle=orthogonalEdgeStyle;rounded=0;orthogonalLoop=1;jettySize=auto;html=1;exitX=0.5;exitY=1;exitDx=0;exitDy=0;entryX=0;entryY=0.5;entryDx=0;entryDy=0;" edge="1" parent="1" source="m4TTydlP-62cfUI--naQ-6" target="m4TTydlP-62cfUI--naQ-18">
          <mxGeometry relative="1" as="geometry" />
        </mxCell>
        <mxCell id="m4TTydlP-62cfUI--naQ-6" value="WRITE &quot;ERROR&quot;" style="shape=parallelogram;perimeter=parallelogramPerimeter;whiteSpace=wrap;html=1;fixedSize=1;" vertex="1" parent="1">
          <mxGeometry x="120" y="340" width="120" height="60" as="geometry" />
        </mxCell>
        <mxCell id="m4TTydlP-62cfUI--naQ-12" value="" style="edgeStyle=orthogonalEdgeStyle;rounded=0;orthogonalLoop=1;jettySize=auto;html=1;" edge="1" parent="1" source="m4TTydlP-62cfUI--naQ-9" target="m4TTydlP-62cfUI--naQ-11">
          <mxGeometry relative="1" as="geometry" />
        </mxCell>
        <mxCell id="m4TTydlP-62cfUI--naQ-14" value="TRUE" style="edgeLabel;html=1;align=center;verticalAlign=middle;resizable=0;points=[];" vertex="1" connectable="0" parent="m4TTydlP-62cfUI--naQ-12">
          <mxGeometry x="-0.05" y="2" relative="1" as="geometry">
            <mxPoint as="offset" />
          </mxGeometry>
        </mxCell>
        <mxCell id="m4TTydlP-62cfUI--naQ-16" value="" style="edgeStyle=orthogonalEdgeStyle;rounded=0;orthogonalLoop=1;jettySize=auto;html=1;" edge="1" parent="1" source="m4TTydlP-62cfUI--naQ-9" target="m4TTydlP-62cfUI--naQ-15">
          <mxGeometry relative="1" as="geometry" />
        </mxCell>
        <mxCell id="m4TTydlP-62cfUI--naQ-17" value="FALSE" style="edgeLabel;html=1;align=center;verticalAlign=middle;resizable=0;points=[];" vertex="1" connectable="0" parent="m4TTydlP-62cfUI--naQ-16">
          <mxGeometry x="-0.4435" y="2" relative="1" as="geometry">
            <mxPoint as="offset" />
          </mxGeometry>
        </mxCell>
        <mxCell id="m4TTydlP-62cfUI--naQ-9" value="N % 2 == 0&lt;div&gt;AND N &amp;gt; 10&lt;/div&gt;" style="rhombus;whiteSpace=wrap;html=1;" vertex="1" parent="1">
          <mxGeometry x="534" y="330" width="116" height="80" as="geometry" />
        </mxCell>
        <mxCell id="m4TTydlP-62cfUI--naQ-21" style="edgeStyle=orthogonalEdgeStyle;rounded=0;orthogonalLoop=1;jettySize=auto;html=1;exitX=0.5;exitY=1;exitDx=0;exitDy=0;entryX=1;entryY=0.5;entryDx=0;entryDy=0;" edge="1" parent="1" source="m4TTydlP-62cfUI--naQ-11" target="m4TTydlP-62cfUI--naQ-18">
          <mxGeometry relative="1" as="geometry" />
        </mxCell>
        <mxCell id="m4TTydlP-62cfUI--naQ-11" value="WRITE &quot;NUMERO VALIDO&quot;" style="shape=parallelogram;perimeter=parallelogramPerimeter;whiteSpace=wrap;html=1;fixedSize=1;" vertex="1" parent="1">
          <mxGeometry x="728" y="340" width="182" height="60" as="geometry" />
        </mxCell>
        <mxCell id="m4TTydlP-62cfUI--naQ-20" style="edgeStyle=orthogonalEdgeStyle;rounded=0;orthogonalLoop=1;jettySize=auto;html=1;exitX=0.5;exitY=1;exitDx=0;exitDy=0;entryX=0.5;entryY=0;entryDx=0;entryDy=0;" edge="1" parent="1" source="m4TTydlP-62cfUI--naQ-15" target="m4TTydlP-62cfUI--naQ-18">
          <mxGeometry relative="1" as="geometry" />
        </mxCell>
        <mxCell id="m4TTydlP-62cfUI--naQ-15" value="WRITE &quot;NUMERO NON VALIDO&quot;" style="shape=parallelogram;perimeter=parallelogramPerimeter;whiteSpace=wrap;html=1;fixedSize=1;" vertex="1" parent="1">
          <mxGeometry x="500" y="500" width="180" height="60" as="geometry" />
        </mxCell>
        <mxCell id="m4TTydlP-62cfUI--naQ-23" style="edgeStyle=orthogonalEdgeStyle;rounded=0;orthogonalLoop=1;jettySize=auto;html=1;exitX=0.5;exitY=1;exitDx=0;exitDy=0;entryX=0.5;entryY=0;entryDx=0;entryDy=0;" edge="1" parent="1" source="m4TTydlP-62cfUI--naQ-18" target="m4TTydlP-62cfUI--naQ-22">
          <mxGeometry relative="1" as="geometry" />
        </mxCell>
        <mxCell id="m4TTydlP-62cfUI--naQ-18" value="" style="ellipse;whiteSpace=wrap;html=1;aspect=fixed;" vertex="1" parent="1">
          <mxGeometry x="500" y="680" width="20" height="20" as="geometry" />
        </mxCell>
        <mxCell id="m4TTydlP-62cfUI--naQ-22" value="END" style="ellipse;whiteSpace=wrap;html=1;" vertex="1" parent="1">
          <mxGeometry x="450" y="760" width="120" height="80" as="geometry" />
        </mxCell>
      </root>
    </mxGraphModel>
  </diagram>
</mxfile>
